<?xml version="1.0" encoding="iso-8859-1"?>
<!-- Generator: Adobe Illustrator 19.1.0, SVG Export Plug-In . SVG Version: 6.00 Build 0)  -->
<svg version="1.1" id="Capa_1" xmlns="http://www.w3.org/2000/svg" xmlns:xlink="http://www.w3.org/1999/xlink" x="0px" y="0px"
	 viewBox="0 0 64 64" style="enable-background:new 0 0 64 64;" xml:space="preserve">
<g>
	<g id="group-57svg">
		<path id="path-1_103_" style="fill:#FF917B;" d="M61,56c0,4.418-3.582,8-8,8H18c-4.418,0-8-3.582-8-8V12c0-4.418,3.582-8,8-8h35
			c4.418,0,8,3.582,8,8V56z"/>
		<path id="path-2_103_" d="M47.5,63h-35C7.262,63,3,58.738,3,53.5v-44C3,4.262,7.262,0,12.5,0h35C52.738,0,57,4.262,57,9.5v44
			C57,58.738,52.738,63,47.5,63z M12.5,3C8.916,3,6,5.916,6,9.5v44c0,3.584,2.916,6.5,6.5,6.5h35c3.584,0,6.5-2.916,6.5-6.5v-44
			C54,5.916,51.084,3,47.5,3H12.5z"/>
		<path id="path-3_102_" d="M49,14H13c-0.828,0-1.5-0.672-1.5-1.5S12.172,11,13,11h36c0.828,0,1.5,0.672,1.5,1.5S49.828,14,49,14z"
			/>
		<path id="path-4_100_" d="M49,22H13c-0.828,0-1.5-0.672-1.5-1.5S12.172,19,13,19h36c0.828,0,1.5,0.672,1.5,1.5S49.828,22,49,22z"
			/>
		<path id="path-5_91_" style="fill:#FFFFFF;" d="M39.505,47.354c0,1.712-1.388,3.1-3.101,3.1c-1.712,0-3.1-1.388-3.1-3.1
			s1.388-3.1,3.1-3.1C38.117,44.254,39.505,45.642,39.505,47.354z"/>
		<path id="path-6_81_" style="fill:#FFFFFF;" d="M27.734,47.354c0,1.712-1.388,3.1-3.1,3.1c-1.713,0-3.101-1.388-3.101-3.1
			s1.388-3.1,3.101-3.1C26.346,44.254,27.734,45.642,27.734,47.354z"/>
		<path id="path-7_51_" d="M34.404,51.954c-2.537,0-4.6-2.063-4.6-4.6s2.063-4.6,4.6-4.6c2.537,0,4.601,2.063,4.601,4.6
			S36.941,51.954,34.404,51.954z M34.404,45.754c-0.883,0-1.6,0.718-1.6,1.6s0.717,1.6,1.6,1.6s1.601-0.718,1.601-1.6
			S35.287,45.754,34.404,45.754z"/>
		<path id="path-8_35_" d="M22.634,51.954c-2.537,0-4.601-2.063-4.601-4.6s2.064-4.6,4.601-4.6s4.6,2.063,4.6,4.6
			S25.171,51.954,22.634,51.954z M22.634,45.754c-0.883,0-1.601,0.718-1.601,1.6s0.718,1.6,1.601,1.6c0.883,0,1.6-0.718,1.6-1.6
			S23.517,45.754,22.634,45.754z"/>
		<path id="path-9_15_" d="M37.5,47.5c-0.828,0-1.5-0.672-1.5-1.5V34h-9v12c0,0.828-0.672,1.5-1.5,1.5S24,46.828,24,46V32.5
			c0-0.828,0.672-1.5,1.5-1.5h12c0.828,0,1.5,0.672,1.5,1.5V46C39,46.828,38.328,47.5,37.5,47.5z"/>
	</g>
</g>
<g>
</g>
<g>
</g>
<g>
</g>
<g>
</g>
<g>
</g>
<g>
</g>
<g>
</g>
<g>
</g>
<g>
</g>
<g>
</g>
<g>
</g>
<g>
</g>
<g>
</g>
<g>
</g>
<g>
</g>
</svg>
